<svg fill="none" height="32" viewBox="0 0 32 32" width="32" xmlns="http://www.w3.org/2000/svg"><path d="m8.99074 11.9106 2.91996-2.91998-1.48-1.48c-.25-.25-.65996-.25-.90996 0l-2.01 2.01c-.25.25-.25.65998 0 .90998z" fill="#7d4533"/><path d="m28.1707 29.7206 1.55-1.55c.37-.38.37-.99 0-1.37l-13.91-13.91-3.8106-.3906.8906 3.3106 13.91 13.91c.38.38.99.38 1.37 0z" fill="#7d4533"/><path d="m21.9806 2.02059c-4.13 1.02-9.03 3.5-12.74002 7.22-3.71 3.72001-6.2 8.61001-7.22 12.74001-.16.66.65 1.12 1.14.64l7.27002-7.27c.15-.15.4-.15.55 0l.82.82c.2.2.53.2.73 0l3.65-3.65c.2-.2.2-.53 0-.73l-.82-.82c-.15-.15-.15-.4 0-.55l7.27-7.27001c.47-.48.02-1.29-.65-1.13z" fill="#b4acbc"/></svg>